<svg xmlns="http://www.w3.org/2000/svg" fill-rule="evenodd" stroke-linejoin="round" stroke-miterlimit="2" clip-rule="evenodd" viewBox="0 0 64 64"><rect width="56.208" height="33.746" x="4.908" y="11.273" fill="#aee8f3"/><path fill="#48cae4" d="M4.908,12.25c-0,0 18.421,28.233 56.208,31.988l-56.208,0l-0,-31.988Z"/><rect width="10" height="10.86" x="28.116" y="48.833" fill="#e9f1f2"/><path fill="#e9f1f2" d="M60.671,44.629l-55.319,-0l0,3c0,1.104 0.896,2 2,2c8.637,-0 42.683,-0 51.319,-0c1.105,-0 2,-0.896 2,-2c0,-1.392 0,-3 0,-3Z"/><path fill="#d0d8da" d="M5.903,44.238l23.192,0c-0,0 -0.338,11.117 8.044,16.251l-9.023,0l-0,-10.58l-20.427,-0c-0,-0 -3.639,0.122 -1.786,-5.671Z"/><rect width="46" height="36" x="10.012" y="4.629" fill="#5bbefb"/><path fill="#16a6f9" d="M10.012,4.629c-0,-0 3.719,23.13 46,36l-46,-0l-0,-36Z"/><rect width="46.073" height="6.941" x="10.302" y="3.941" fill="#c6e9fe"/><rect width="46.073" height="7.332" x="10.205" y="4.435" fill="#c6e9fe"/><rect width="17" height="13.5" x="14" y="22.25" fill="#fe4f5e"/><circle cx="14" cy="7.5" r=".5" fill="#d90113"/><circle cx="18.5" cy="7.5" r=".5" fill="#f6e62e"/><circle cx="23.5" cy="7.5" r=".5" fill="#2eb60f"/><path fill="#f6e62e" d="M52,16c0,-0.53 -0.211,-1.039 -0.586,-1.414c-0.375,-0.375 -0.884,-0.586 -1.414,-0.586c-6.568,0 -27.432,0 -34,-0c-0.53,-0 -1.039,0.211 -1.414,0.586c-0.375,0.375 -0.586,0.884 -0.586,1.414c0,0.166 0,0.334 0,0.5c-0,0.53 0.211,1.039 0.586,1.414c0.375,0.375 0.884,0.586 1.414,0.586c6.568,0 27.432,0 34,-0c0.53,0 1.039,-0.211 1.414,-0.586c0.375,-0.375 0.586,-0.884 0.586,-1.414c0,-0.166 0,-0.334 0,-0.5Z"/><rect width="17" height="4.565" x="14" y="22.25" fill="#c62828"/><path fill="#404040" d="M9,10l-4,0c-0.552,0 -1,0.448 -1,1l-0,5.278c-0,0.552 0.448,1 1,1c0.552,-0 1,-0.448 1,-1l-0,-4.278c-0,0 3,0 3,0c-0,-0 -0,28 -0,28c0,0.552 0.448,1 1,1l2,0c0.552,-0 1,-0.448 1,-1c-0,-0.552 -0.448,-1 -1,-1l-1,0l-0,-27l44,0l-0,27c-0,0 -39,0 -39,0c-0.552,-0 -1,0.448 -1,1c-0,0.552 0.448,1 1,1l40,0c0.552,0 1,-0.448 1,-1l-0,-28l3,0l0,31l-46,0c-0.552,0 -1,0.448 -1,1c0,0.552 0.448,1 1,1l46,0l-0,1.889c-0,0.609 -0.476,1.111 -1.074,1.111c-0,-0 -51.852,0 -51.852,0c-0.598,-0 -1.074,-0.502 -1.074,-1.111l0,-1.889l4,0c0.552,0 1,-0.448 1,-1c0,-0.552 -0.448,-1 -1,-1l-4,0l-0,-22.5c-0,-0.552 -0.448,-1 -1,-1c-0.552,-0 -1,0.448 -1,1l0,26.389c0,1.723 1.381,3.111 3.074,3.111l19.926,0l0,9l-5,0c-0.552,-0 -1,0.448 -1,1c-0,0.552 0.448,1 1,1l22,0c0.552,-0 1,-0.448 1,-1c-0,-0.552 -0.448,-1 -1,-1l-5,0l-0,-9l19.926,-0c1.693,-0 3.074,-1.388 3.074,-3.111l0,-35.889c0,-0.552 -0.448,-1 -1,-1l-4,0l-0,-6c-0,-0.552 -0.448,-1 -1,-1l-46,0c-0.552,0 -1,0.448 -1,1l-0,6Zm20,49l8,0l-0,-9l-8,0c-0,0 -0,9 -0,9Zm7,-22.25l16,0c0.552,-0 1,-0.448 1,-1c-0,-0.552 -0.448,-1 -1,-1l-16,0c-0.552,-0 -1,0.448 -1,1c-0,0.552 0.448,1 1,1Zm-23,-14.506l0,13.506c0,0.552 0.448,1 1,1l17,0c0.552,0 1,-0.448 1,-1l-0,-13.526l-0.023,-0.188l-0.06,-0.186l-0.095,-0.169l-0.123,-0.147l-0.15,-0.12l-0.171,-0.09l-0.189,-0.056l-0.189,-0.018l-17.019,0l-0.195,0.023l-0.186,0.06l-0.169,0.095l-0.147,0.123l-0.12,0.15l-0.09,0.171l-0.056,0.189l-0.018,0.183Zm17,5.506l0,7c0,0 -15,0 -15,0l-0,-7l15,0Zm6,4.25l16,0c0.552,-0 1,-0.448 1,-1c-0,-0.552 -0.448,-1 -1,-1l-16,0c-0.552,-0 -1,0.448 -1,1c-0,0.552 0.448,1 1,1Zm-0,-4.5l16,0c0.552,-0 1,-0.448 1,-1c-0,-0.552 -0.448,-1 -1,-1l-16,0c-0.552,-0 -1,0.448 -1,1c-0,0.552 0.448,1 1,1Zm-6,-1.75l-15,0l0,-2.5l15,0l0,2.5Zm6,-2.75l16,0c0.552,0 1,-0.448 1,-1c0,-0.552 -0.448,-1 -1,-1l-16,0c-0.552,0 -1,0.448 -1,1c0,0.552 0.448,1 1,1Zm17,-7c0,-0.796 -0.316,-1.559 -0.879,-2.121c-0.562,-0.563 -1.325,-0.879 -2.121,-0.879c-6.568,0 -27.432,0 -34,-0c-0.796,-0 -1.559,0.316 -2.121,0.879c-0.563,0.562 -0.879,1.325 -0.879,2.121c0,0.166 0,0.334 0,0.5c-0,0.796 0.316,1.559 0.879,2.121c0.562,0.563 1.325,0.879 2.121,0.879c6.568,0 27.432,0 34,-0c0.796,0 1.559,-0.316 2.121,-0.879c0.563,-0.562 0.879,-1.325 0.879,-2.121c0,-0.166 0,-0.334 0,-0.5Zm-2,0c0,0.166 0,0.334 0,0.5c0,0.265 -0.105,0.52 -0.293,0.707c-0.187,0.188 -0.442,0.293 -0.707,0.293l-34,-0c-0.265,0 -0.52,-0.105 -0.707,-0.293c-0.188,-0.187 -0.293,-0.442 -0.293,-0.707c0,-0.166 0,-0.334 -0,-0.5c-0,-0.265 0.105,-0.52 0.293,-0.707c0.187,-0.188 0.442,-0.293 0.707,-0.293l34,0c0.265,-0 0.52,0.105 0.707,0.293c0.188,0.187 0.293,0.442 0.293,0.707Zm4,-6l0,-5c0,0 -44,0 -44,0l-0,5l44,0Zm-41,-4c-0.828,0 -1.5,0.672 -1.5,1.5c-0,0.828 0.672,1.5 1.5,1.5c0.828,-0 1.5,-0.672 1.5,-1.5c-0,-0.828 -0.672,-1.5 -1.5,-1.5Zm4.5,0c-0.828,0 -1.5,0.672 -1.5,1.5c-0,0.828 0.672,1.5 1.5,1.5c0.828,-0 1.5,-0.672 1.5,-1.5c-0,-0.828 -0.672,-1.5 -1.5,-1.5Zm5,0c-0.828,0 -1.5,0.672 -1.5,1.5c-0,0.828 0.672,1.5 1.5,1.5c0.828,-0 1.5,-0.672 1.5,-1.5c-0,-0.828 -0.672,-1.5 -1.5,-1.5Zm-9.5,2c-0.276,0 -0.5,-0.224 -0.5,-0.5c-0,-0.276 0.224,-0.5 0.5,-0.5c0.276,-0 0.5,0.224 0.5,0.5c-0,0.276 -0.224,0.5 -0.5,0.5Zm4.5,0c-0.276,0 -0.5,-0.224 -0.5,-0.5c-0,-0.276 0.224,-0.5 0.5,-0.5c0.276,-0 0.5,0.224 0.5,0.5c-0,0.276 -0.224,0.5 -0.5,0.5Zm5,0c-0.276,0 -0.5,-0.224 -0.5,-0.5c-0,-0.276 0.224,-0.5 0.5,-0.5c0.276,-0 0.5,0.224 0.5,0.5c-0,0.276 -0.224,0.5 -0.5,0.5Z"/></svg>